<?xml version="1.0" encoding="utf-8"?>
<!-- Generator: Adobe Illustrator 24.3.0, SVG Export Plug-In . SVG Version: 6.00 Build 0)  -->
<svg version="1.1" id="Layer_1" xmlns="http://www.w3.org/2000/svg" xmlns:xlink="http://www.w3.org/1999/xlink" x="0px" y="0px"
	 viewBox="0 0 250 130" style="enable-background:new 0 0 250 130;" xml:space="preserve">
<style type="text/css">
	.st0{fill:#7AE1FC;}
	.st1{fill:#40D4FB;}
	.st2{fill:#00395B;}
	.st3{fill:#01395B;}
	.st4{fill:#3FD4FB;}
	.st5{fill:#6EDFFC;}
	.st6{fill:#91E8FD;}
	.st7{fill:#A1EAFD;}
	.st8{fill:#7CE0FC;}
</style>
<g>
	<path class="st0" d="M247.36,82.96c0.05,0,0.1-0.01,0.16-0.01c0,0.55,0,1.1,0,1.65l-0.07,0.01l-0.07-0.01
		C247.04,84.05,247.03,83.51,247.36,82.96z"/>
	<path class="st1" d="M247.36,82.96c0,0.55,0.01,1.09,0.01,1.64c-0.27,0.01-0.55,0.03-0.82,0.03c-40.78,0-81.56,0-122.35,0
		c-1.08,0-0.96,0.09-0.97-0.96c0-0.02,0-0.05,0-0.07c0.01-0.65,0.01-0.65,0.66-0.66c0.17,0,0.35,0,0.52,0c40.63,0,81.27,0,121.9,0
		C246.66,82.93,247.01,82.95,247.36,82.96z"/>
	<path class="st2" d="M219.12,68.91c0.23-0.12,0.32-0.33,0.45-0.51c1.33-1.81,2.65-3.62,3.97-5.43c0.12-0.16,0.23-0.32,0.35-0.48
		c0.09-0.13,0.21-0.21,0.37-0.21c0.97,0,1.94,0,2.92,0c0.18,0,0.27,0.09,0.27,0.28c0,0.15,0,0.3,0,0.45c0,4.74,0,9.47,0,14.21
		c0,0.17,0,0.35-0.01,0.52c-0.01,0.14-0.08,0.24-0.23,0.24c-0.82,0.01-1.64,0.01-2.47,0.01c-0.18,0-0.26-0.11-0.26-0.29
		c0-0.2,0-0.4,0-0.6c0-3.19,0-6.38,0-9.57c0-0.24-0.02-0.48-0.03-0.81c-0.26,0.22-0.39,0.43-0.53,0.62
		c-1.37,1.81-2.73,3.62-4.09,5.43c-0.06,0.08-0.12,0.16-0.18,0.24c-0.42,0.54-0.78,0.54-1.17,0.01c-0.95-1.28-1.89-2.57-2.83-3.86
		c-0.52-0.7-1.03-1.41-1.55-2.11c-0.07-0.1-0.15-0.19-0.22-0.28c-0.27,0.07-0.15,0.26-0.15,0.38c-0.01,3.29,0,6.58-0.01,9.87
		c0,1.11,0.12,0.95-0.94,0.96c-0.57,0.01-1.15,0-1.72,0c-0.18,0-0.27-0.1-0.28-0.27c-0.01-0.2-0.01-0.4-0.01-0.6
		c0-4.66,0-9.32,0-13.98c0-0.96-0.08-0.85,0.83-0.86c0.65,0,1.3,0.03,1.94-0.01c0.47-0.03,0.77,0.12,1.05,0.52
		c1.33,1.87,2.69,3.71,4.05,5.56C218.8,68.54,218.92,68.76,219.12,68.91z"/>
	<path class="st2" d="M185.33,48.43c-0.04,0.28-0.03,0.53-0.03,0.77c0,2.87,0,5.73,0,8.6c0,0.2,0,0.4,0,0.6
		c-0.01,0.28-0.04,0.32-0.29,0.33c-0.8,0.01-1.59,0-2.39,0c-0.18,0-0.27-0.09-0.28-0.27c0-0.17,0-0.35,0-0.52c0-4.71,0-9.42,0-14.13
		c0-0.86-0.09-0.81,0.8-0.8c0.55,0.01,1.1-0.05,1.64,0.05c0.33,0.41,0.66,0.81,0.99,1.22c2.24,2.83,4.48,5.66,6.73,8.5
		c0.15,0.19,0.31,0.38,0.46,0.57c0.24-0.06,0.17-0.24,0.17-0.37c0.01-1.52,0-3.04,0-4.56c0-1.57,0-3.14,0-4.71
		c0-0.15,0-0.3,0.01-0.45c0-0.15,0.09-0.24,0.23-0.24c0.82-0.01,1.64,0,2.47,0c0.19,0,0.25,0.12,0.25,0.29c0,0.17,0,0.35,0,0.52
		c0,4.71,0,9.42,0,14.13c0,0.15,0,0.3,0,0.45c-0.01,0.31-0.03,0.33-0.36,0.34c-0.55,0.01-1.1-0.01-1.64,0.01
		c-0.27,0.01-0.46-0.07-0.64-0.3c-0.48-0.63-0.99-1.25-1.49-1.87c-2.04-2.55-4.08-5.1-6.12-7.64
		C185.7,48.75,185.61,48.54,185.33,48.43z"/>
	<path class="st2" d="M218.63,53.38c0.01-0.28,0.02-0.52,0.02-0.76c0-2.97,0-5.93,0-8.9c0-0.79-0.08-0.74,0.71-0.74
		c0.65,0,1.3,0,1.94,0c0.25,0,0.31,0.06,0.32,0.3c0.01,0.17,0,0.35,0,0.52c0,4.69,0,9.37,0,14.06c0,0.2,0,0.4-0.01,0.6
		c0,0.14-0.08,0.24-0.22,0.24c-0.67,0.01-1.35,0-2.02,0.01c-0.17,0-0.27-0.11-0.36-0.23c-0.39-0.49-0.78-0.97-1.17-1.46
		c-2.18-2.72-4.36-5.45-6.54-8.17c-0.11-0.13-0.22-0.26-0.33-0.39c-0.24,0.11-0.14,0.31-0.14,0.46c-0.01,2.97,0,5.93-0.01,8.9
		c0,1.04,0.13,0.89-0.92,0.9c-0.6,0.01-1.2,0-1.79,0c-0.14,0-0.24-0.06-0.24-0.22c-0.01-0.15-0.01-0.3-0.01-0.45
		c0-4.78,0-9.57,0-14.35c0-0.15,0-0.3,0-0.45c0-0.19,0.11-0.26,0.28-0.26c0.6,0,1.2,0.01,1.79-0.01c0.25,0,0.41,0.1,0.56,0.29
		c0.95,1.22,1.92,2.42,2.87,3.64c1.59,2.01,3.18,4.03,4.78,6.04C218.29,53.09,218.37,53.28,218.63,53.38z"/>
	<path class="st2" d="M139.12,31.57c0,2.34,0,4.68,0,7.02c0,0.2,0,0.4-0.01,0.6c0,0.14-0.08,0.23-0.23,0.23c-0.65,0-1.3,0-1.94,0.01
		c-0.2,0-0.32-0.11-0.43-0.25c-0.31-0.39-0.62-0.78-0.93-1.17c-2.22-2.78-4.45-5.56-6.67-8.34c-0.12-0.15-0.25-0.31-0.39-0.45
		c-0.02-0.02-0.09-0.01-0.13-0.01c-0.02,0-0.05,0.03-0.05,0.05c-0.01,0.2-0.01,0.4-0.01,0.6c0,2.91,0,5.83,0,8.74
		c0,0.95,0.11,0.82-0.83,0.83c-0.62,0-1.25,0-1.87-0.01c-0.15,0-0.23-0.08-0.23-0.23c-0.01-0.17-0.01-0.35-0.01-0.52
		c0-4.73,0-9.46,0-14.2c0-0.15,0-0.3,0-0.45c0.01-0.26,0.05-0.32,0.3-0.32c0.6-0.01,1.2,0,1.79-0.01c0.22,0,0.38,0.07,0.51,0.24
		c0.26,0.34,0.52,0.67,0.78,1c2.32,2.93,4.64,5.86,6.96,8.79c0.09,0.11,0.2,0.22,0.3,0.32c0.02,0.02,0.12-0.01,0.13-0.03
		c0.01-0.15,0.02-0.3,0.02-0.45c0-2.96,0-5.93,0-8.89c0-0.29-0.12-0.66,0.06-0.87c0.22-0.25,0.61-0.1,0.92-0.1
		c0.55-0.02,1.1-0.01,1.64,0c0.25,0,0.29,0.05,0.3,0.32c0.01,0.2,0,0.4,0,0.6C139.12,26.94,139.12,29.26,139.12,31.57z"/>
	<path class="st2" d="M195.15,70.12c0-2.32,0-4.63,0-6.95c0-0.17,0-0.35,0-0.52c0.01-0.39,0.03-0.42,0.43-0.42
		c0.62-0.01,1.25,0,1.87,0c2.94,0,5.88,0,8.82,0c0.71,0,0.67,0.03,0.67,0.65c0,0.65,0,1.3,0,1.94c0,0.17-0.09,0.28-0.27,0.29
		c-0.2,0.01-0.4,0.01-0.6,0.01c-2.34,0-4.68,0-7.03,0c-0.2,0-0.4,0-0.6,0c-0.31,0.01-0.34,0.03-0.34,0.36
		c-0.01,0.95-0.01,1.89,0,2.84c0,0.41,0.02,0.43,0.41,0.43c0.42,0.01,0.85,0,1.27,0c1.99,0,3.99,0,5.98,0c0.2,0,0.4,0,0.6,0
		c0.19,0,0.26,0.12,0.26,0.29c0,0.72,0,1.44,0,2.17c0,0.18-0.09,0.28-0.27,0.29c-0.2,0.01-0.4,0.01-0.6,0.01c-2.27,0-4.53,0-6.8,0
		c-0.2,0-0.4,0-0.6,0.01c-0.15,0-0.22,0.09-0.24,0.23c-0.01,0.05-0.01,0.1-0.01,0.15c0,0.95,0,1.89,0,2.84
		c0,0.28,0.03,0.31,0.3,0.32c0.2,0.01,0.4,0,0.6,0c2.37,0,4.73,0,7.1,0c0.2,0,0.4,0,0.6,0.01c0.14,0.01,0.23,0.1,0.23,0.24
		c0,0.82,0,1.64-0.01,2.46c0,0.15-0.11,0.22-0.25,0.22c-0.15,0.01-0.3,0.01-0.45,0.01c-3.46,0-6.93,0-10.39,0
		c-0.15,0-0.3,0-0.45-0.01c-0.15-0.01-0.23-0.1-0.23-0.24c-0.01-0.2-0.01-0.4-0.01-0.6C195.15,74.8,195.15,72.46,195.15,70.12z"/>
	<path class="st2" d="M236.34,49.61c0.95,0,1.89,0,2.84,0c0.51,0,0.51,0.01,0.52,0.49c0,0.02,0,0.05,0,0.07
		c0,1.87-0.01,3.74,0.01,5.61c0,0.35-0.11,0.61-0.35,0.86c-1.44,1.47-3.16,2.3-5.23,2.41c-1.23,0.06-2.44,0.01-3.63-0.34
		c-2.54-0.74-4.24-2.35-5-4.89c-0.66-2.2-0.56-4.39,0.33-6.51c1.08-2.59,3.05-4.12,5.81-4.62c1.84-0.33,3.62-0.18,5.33,0.63
		c0.77,0.36,1.47,0.83,2.1,1.42c0.15,0.15,0.17,0.24,0.04,0.38c-0.5,0.52-1.01,1.04-1.51,1.55c-0.1,0.1-0.21,0.11-0.33,0.01
		c-0.54-0.46-1.14-0.8-1.8-1.05c-1.15-0.43-2.34-0.51-3.52-0.2c-1.48,0.39-2.57,1.28-3.25,2.65c-0.73,1.46-0.87,3.01-0.46,4.58
		c0.46,1.75,1.58,2.9,3.34,3.4c1.08,0.31,2.16,0.35,3.25,0.1c0.71-0.16,1.35-0.5,1.94-0.94c0.15-0.11,0.24-0.24,0.24-0.44
		c0-0.75,0-1.49,0-2.24c0-0.18-0.1-0.27-0.28-0.27c-0.2,0-0.4,0-0.6,0c-0.95,0-1.89,0-2.84,0c-0.17,0-0.3-0.06-0.3-0.25
		c0-0.72,0-1.44,0-2.17c0-0.14,0.08-0.23,0.23-0.24c0.17,0,0.35-0.01,0.52-0.01C234.59,49.61,235.46,49.61,236.34,49.61z"/>
	<path class="st2" d="M193.34,31.56c0-2.34,0-4.68,0-7.02c0-0.2,0-0.4,0.01-0.6c0-0.15,0.09-0.22,0.23-0.23c0.1,0,0.2-0.01,0.3-0.01
		c3.56,0,7.12,0,10.69,0c0.1,0,0.2,0,0.3,0.01c0.14,0.01,0.24,0.08,0.24,0.23c0,0.8,0,1.59,0,2.39c0,0.14-0.08,0.23-0.23,0.23
		c-0.2,0.01-0.4,0.01-0.6,0.01c-2.39,0-4.78,0-7.17,0c-0.2,0-0.4,0-0.6,0.01c-0.14,0.01-0.23,0.09-0.23,0.23
		c-0.01,0.4-0.01,0.8-0.01,1.19c0,0.6,0,1.2,0,1.79c0,0.37,0.05,0.41,0.44,0.42c0.17,0,0.35,0,0.52,0c2.24,0,4.48,0,6.73,0
		c0.2,0,0.4,0,0.6,0.01c0.14,0.01,0.24,0.1,0.24,0.24c0,0.77,0,1.54-0.01,2.31c0,0.11-0.08,0.19-0.19,0.19
		c-0.2,0.01-0.4,0.01-0.6,0.01c-2.27,0-4.53,0-6.8,0c-0.2,0-0.4,0-0.6,0c-0.27,0.01-0.33,0.06-0.33,0.29
		c-0.01,0.97-0.01,1.94,0,2.91c0,0.28,0.07,0.33,0.37,0.34c0.22,0.01,0.45,0,0.67,0c2.32,0,4.63,0,6.95,0c0.15,0,0.3,0,0.45,0
		c0.35,0.01,0.41,0.05,0.41,0.37c0.01,0.75,0,1.49,0,2.24c0,0.17-0.09,0.28-0.27,0.28c-0.15,0-0.3,0-0.45,0c-3.44,0-6.88,0-10.31,0
		c-0.83,0-0.74,0.08-0.74-0.78C193.34,36.29,193.34,33.92,193.34,31.56z"/>
	<path class="st2" d="M156.18,64.36c-0.63,0.62-1.27,1.24-1.92,1.85c-0.11-0.08-0.2-0.14-0.27-0.2c-1.68-1.34-3.57-1.57-5.57-0.93
		c-1.52,0.49-2.52,1.56-3.05,3.06c-0.5,1.41-0.48,2.84,0.05,4.24c0.59,1.55,1.7,2.55,3.32,2.95c1.69,0.42,3.31,0.23,4.81-0.72
		c0.29-0.19,0.56-0.41,0.88-0.64c0.66,0.67,1.33,1.32,1.98,2.02c-0.94,0.96-2.03,1.59-3.27,1.95c-2.04,0.59-4.09,0.54-6.1-0.17
		c-2.1-0.74-3.55-2.18-4.33-4.25c-0.84-2.2-0.86-4.44,0-6.64c0.91-2.35,2.6-3.91,5.04-4.6c2.03-0.57,4.03-0.52,5.99,0.33
		C154.71,63.03,155.57,63.65,156.18,64.36z"/>
	<path class="st2" d="M245.49,62.35c-0.06,0.26-0.26,0.46-0.41,0.68c-1.82,2.65-3.64,5.3-5.47,7.93c-0.24,0.34-0.35,0.68-0.35,1.1
		c0.02,1.69,0.01,3.39,0.01,5.08c0,0.2,0,0.4-0.01,0.6c-0.01,0.14-0.09,0.23-0.23,0.23c-0.82,0-1.64,0.01-2.47,0
		c-0.19,0-0.26-0.11-0.26-0.29c0-0.2,0-0.4,0-0.6c0-1.64-0.01-3.29,0.01-4.93c0.01-0.47-0.11-0.86-0.37-1.25
		c-1.76-2.63-3.5-5.26-5.25-7.9c-0.12-0.19-0.25-0.37-0.35-0.57c-0.05-0.09,0-0.2,0.13-0.21c0.3-0.01,0.6-0.01,0.9-0.01
		c0.62,0,1.25,0.03,1.87-0.01c0.44-0.03,0.67,0.15,0.88,0.51c1.01,1.69,2.05,3.35,3.09,5.03c0.14,0.23,0.29,0.47,0.44,0.7
		c0.11,0.17,0.21,0.17,0.33-0.01c0.64-0.98,1.27-1.97,1.9-2.95c0.62-0.96,1.24-1.92,1.85-2.89c0.16-0.25,0.34-0.39,0.66-0.38
		c0.92,0.02,1.84,0.01,2.77,0.01C245.26,62.22,245.39,62.21,245.49,62.35z"/>
	<path class="st2" d="M128.9,52.2c0-1.89,0-3.79,0-5.68c0-0.2,0-0.4-0.01-0.6c0-0.15-0.09-0.22-0.24-0.23
		c-0.17-0.01-0.35-0.01-0.52-0.01c-1.15,0-2.29,0-3.44,0c-0.17,0-0.35,0-0.52-0.01c-0.15,0-0.24-0.09-0.25-0.22
		c-0.01-0.75,0-1.49,0-2.24c0-0.15,0.1-0.21,0.24-0.22c0.12,0,0.25-0.01,0.37-0.01c3.89,0,7.78,0,11.66,0
		c0.69,0,0.65-0.03,0.65,0.65c0,0.47,0,0.95,0,1.42c0.01,0.65-0.01,0.63-0.6,0.63c-1.17,0-2.34,0-3.51,0c-0.2,0-0.4,0-0.6,0
		c-0.19,0-0.27,0.1-0.27,0.28c0,0.2,0,0.4,0,0.6c0,3.71,0,7.43,0,11.14c0,0.15,0,0.3,0,0.45c0,0.56,0.02,0.58-0.58,0.58
		c-0.7-0.01-1.4,0-2.09-0.01c-0.25,0-0.3-0.06-0.3-0.32c-0.01-0.75,0-1.5,0-2.24C128.9,54.84,128.9,53.52,128.9,52.2z"/>
	<path class="st2" d="M179.26,31.58c0-2.34,0-4.68,0-7.02c0-0.2,0-0.4,0-0.6c0-0.19,0.11-0.26,0.29-0.26c0.77,0,1.54,0,2.32,0
		c0.28,0,0.32,0.05,0.33,0.36c0.01,0.2,0,0.4,0,0.6c0,3.73,0,7.47,0,11.2c0,0.94-0.06,0.84,0.84,0.84c2.14,0,4.28,0,6.42,0
		c0.2,0,0.4,0,0.6,0.01c0.14,0.01,0.24,0.08,0.24,0.23c0,0.75,0.01,1.49,0,2.24c0,0.19-0.12,0.26-0.29,0.26c-0.15,0-0.3,0-0.45,0
		c-3.19,0-6.37,0-9.56,0c-0.17,0-0.35,0-0.52-0.01c-0.15,0-0.22-0.09-0.22-0.24c0-0.2-0.01-0.4-0.01-0.6
		C179.26,36.26,179.26,33.92,179.26,31.58z"/>
	<path class="st2" d="M187.03,92.17c-0.59,0-1.16,0-1.73,0c-0.17,0-0.24-0.11-0.21-0.31c0.14-1.03,0.66-1.81,1.56-2.33
		c0.5-0.29,1.05-0.47,1.62-0.55c0.97-0.13,1.94-0.16,2.89,0.09c0.14,0.04,0.29,0.08,0.43,0.13c1.47,0.51,2.21,1.56,2.2,3.1
		c0,0.38-0.06,0.75-0.16,1.11c-0.21,0.75-0.67,1.32-1.37,1.68c-0.72,0.38-1.51,0.49-2.31,0.54c-0.32,0.02-0.65,0.01-0.97,0.03
		c-0.4,0.02-0.79,0.11-1.15,0.28c-0.49,0.23-0.79,0.6-0.77,1.17c0.01,0.15,0,0.3,0,0.45c0.01,0.37,0.04,0.4,0.44,0.41
		c0.17,0.01,0.35,0,0.52,0c1.62,0,3.24,0,4.86,0c0.2,0,0.4,0,0.6,0c0.25,0.01,0.33,0.07,0.32,0.3c-0.01,0.49,0.05,0.99-0.04,1.48
		c-0.47,0.23-0.97,0.09-1.46,0.1c-2.17,0.02-4.33,0.01-6.5,0.01c-0.2,0-0.4,0-0.6-0.01c-0.11,0-0.2-0.06-0.2-0.17
		c0.01-1.12-0.11-2.24,0.07-3.35c0.13-0.84,0.62-1.45,1.35-1.87c0.64-0.36,1.33-0.56,2.06-0.61c0.55-0.04,1.09-0.08,1.64-0.12
		c0.35-0.03,0.68-0.16,0.98-0.34c0.95-0.55,0.76-1.96-0.02-2.37c-0.18-0.09-0.36-0.18-0.55-0.23c-0.71-0.18-1.43-0.18-2.14,0.02
		C187.7,91,187.2,91.4,187.03,92.17z"/>
	<path class="st3" d="M175,50.81c0-2.34,0-4.68,0-7.02c0-0.2,0-0.4,0.01-0.6c0.01-0.11,0.08-0.17,0.19-0.19
		c0.05-0.01,0.1-0.01,0.15-0.01c0.75,0,1.49-0.01,2.24,0c0.31,0,0.35,0.05,0.36,0.33c0.01,0.17,0,0.35,0,0.52c0,4.68,0,9.36,0,14.03
		c0,0.2,0,0.4-0.01,0.6c0,0.14-0.08,0.23-0.22,0.24c-0.82,0-1.64,0.01-2.46,0c-0.19,0-0.26-0.12-0.26-0.29c0-0.2,0-0.4,0-0.6
		C175,55.49,175,53.15,175,50.81z"/>
	<path class="st2" d="M200.5,50.87c0-2.34,0-4.68,0-7.03c0-0.2,0-0.4,0-0.6c0-0.14,0.05-0.25,0.21-0.25c0.82,0,1.64,0,2.47,0
		c0.14,0,0.23,0.08,0.24,0.22c0.01,0.15,0.01,0.3,0.01,0.45c0,4.81,0,9.62,0,14.42c0,0.15-0.01,0.3-0.02,0.45
		c-0.01,0.12-0.09,0.17-0.2,0.18c-0.82,0-1.64,0-2.47,0c-0.14,0-0.23-0.07-0.24-0.22c-0.01-0.2-0.01-0.4-0.01-0.6
		C200.5,55.55,200.5,53.21,200.5,50.87z"/>
	<path class="st2" d="M164.24,99.87c1.49-3.01,2.91-5.87,4.32-8.7c-0.11-0.23-0.28-0.17-0.41-0.18c-1.34-0.01-2.69,0-4.03,0
		c-0.17,0-0.35,0-0.52-0.01c-0.11-0.01-0.2-0.08-0.2-0.18c-0.01-0.52-0.01-1.04-0.01-1.56c0-0.11,0.09-0.18,0.2-0.19
		c0.15-0.01,0.3-0.01,0.45-0.01c2.21,0,4.43,0,6.64,0c0.12,0,0.25,0,0.37,0c0.27,0.01,0.3,0.05,0.34,0.29c0.09,0.5,0,0.96-0.24,1.43
		c-1.44,2.84-2.84,5.69-4.26,8.54c-0.06,0.11-0.11,0.22-0.16,0.34c-0.07,0.14-0.18,0.23-0.35,0.23
		C165.71,99.87,165.04,99.87,164.24,99.87z"/>
	<path class="st2" d="M140.89,95.43c0,1.27,0,2.54,0,3.81c0,0.15,0,0.3-0.01,0.45c-0.01,0.12-0.09,0.18-0.2,0.18
		c-0.52,0-1.05,0.01-1.57,0c-0.14,0-0.23-0.07-0.24-0.22c-0.01-0.2-0.01-0.4-0.01-0.6c0-2.44,0-4.88,0-7.32c0-0.17,0-0.35,0-0.52
		c-0.01-0.25-0.07-0.32-0.3-0.32c-0.47-0.01-0.95,0-1.42,0c-0.5,0-1,0-1.49-0.01c-0.15,0-0.23-0.09-0.23-0.23c0-0.45,0-0.9,0-1.34
		c0-0.19,0.12-0.25,0.29-0.25c0.15,0,0.3,0,0.45,0c2.49,0,4.98,0,7.47,0c0.15,0,0.3,0,0.45,0c0.14,0,0.25,0.05,0.25,0.21
		c0,0.47,0,0.95,0,1.42c0,0.11-0.07,0.19-0.18,0.19c-0.17,0.01-0.35,0.01-0.52,0.01c-0.77,0-1.54,0-2.32,0
		c-0.39,0-0.41,0.02-0.41,0.44C140.89,92.69,140.89,94.06,140.89,95.43z"/>
	<path class="st3" d="M209.97,91.7c-0.62,0.03-1.13,0.33-1.73,0.4c-0.12-0.3-0.06-0.6-0.07-0.88c-0.01-0.3,0-0.59,0-0.85
		c0.06-0.05,0.08-0.07,0.1-0.08c1.15-0.39,2.3-0.79,3.45-1.18c0.15-0.05,0.25,0.02,0.26,0.16c0.01,0.2,0.01,0.4,0.01,0.6
		c0,2.49,0,4.98,0,7.47c0,0.2-0.01,0.4,0.01,0.6c0.01,0.13,0.1,0.23,0.24,0.23c0.42,0.01,0.85,0.01,1.27,0.01
		c0.18,0,0.28,0.09,0.28,0.27c-0.04,1.72,0.33,1.4-1.29,1.42c-1.24,0.02-2.49,0-3.73,0c-0.17,0-0.35,0-0.52-0.02
		c-0.11-0.01-0.18-0.08-0.19-0.19c-0.01-0.1-0.02-0.2-0.01-0.3c0.02-0.37-0.15-0.81,0.08-1.08c0.25-0.29,0.7-0.1,1.07-0.11
		c0.83-0.02,0.76,0.05,0.76-0.77c0-1.67,0-3.33,0-5C209.97,92.18,209.97,91.95,209.97,91.7z"/>
	<path class="st4" d="M2.49,65.31c0.01-0.37,0.02-0.74,0.02-1.11c0-1.39,0-2.77,0-4.16c0-0.3-0.01-0.59-0.02-0.89
		c0.12-1.71,0.29-3.42,0.58-5.12c0.37-2.19,0.85-4.34,1.49-6.47c1.46-4.83,3.58-9.34,6.36-13.54c1.1-1.66,2.33-3.24,3.62-4.76
		c0.93-1.1,1.89-2.19,2.94-3.19c2.13-2.04,4.38-3.92,6.79-5.61c2.54-1.78,5.26-3.23,8.08-4.5c2.73-1.23,5.54-2.22,8.45-2.93
		c1.38-0.34,2.76-0.63,4.17-0.84c1.3-0.19,2.61-0.36,3.93-0.47c2.47-0.22,4.93-0.17,7.4-0.08c1.11,0.04,2.23,0.19,3.34,0.34
		c1.31,0.19,2.61,0.41,3.89,0.68c0.56,0.12,1.12,0.21,1.66,0.43c-0.11,0.41-0.38,0.2-0.61,0.16c-0.69-0.12-1.37-0.23-2.06-0.37
		c-1.37-0.26-2.75-0.42-4.14-0.55c-2.59-0.26-5.18-0.18-7.77-0.11c-0.52,0.01-1.04,0.09-1.56,0.14c-2.78,0.28-5.52,0.79-8.21,1.51
		c-2.24,0.6-4.42,1.39-6.54,2.31c-2.51,1.1-4.96,2.32-7.27,3.82c-1.8,1.17-3.52,2.45-5.15,3.84c-1.23,1.05-2.45,2.12-3.57,3.29
		c-1.49,1.57-2.89,3.23-4.19,4.97c-3.03,4.07-5.32,8.52-6.98,13.31c-0.91,2.64-1.59,5.34-2.04,8.09c-0.27,1.69-0.47,3.4-0.54,5.12
		c-0.04,0.97-0.12,1.94-0.1,2.91c0.05,1.87,0.15,3.73,0.38,5.58c0.38,3.15,1.06,6.23,2.05,9.24c1.22,3.76,2.9,7.31,4.97,10.67
		c2.27,3.67,5.01,6.95,8.16,9.88c3.53,3.28,7.43,6.02,11.79,8.08c3.29,1.55,6.7,2.82,10.26,3.61c1.5,0.33,3.02,0.62,4.55,0.83
		c2.85,0.39,5.71,0.51,8.57,0.37c1.94-0.09,3.87-0.31,5.78-0.65c2.01-0.36,4-0.81,5.95-1.41c0.16-0.05,0.32-0.11,0.66-0.22
		c-0.57-0.1-0.96-0.17-1.37-0.21c-2.48-0.24-4.92-0.71-7.33-1.36c-0.06-0.12-0.38,0.03-0.29-0.26c1.33-0.03,2.61-0.34,3.89-0.64
		c0.17-0.04,0.32-0.13,0.48-0.19c0.02-0.01,0.04-0.04,0.03-0.05c-0.02-0.04-0.04-0.09-0.07-0.11c-0.04-0.03-0.09-0.03-0.14-0.04
		c-2.07-0.23-3.94-1.01-5.67-2.15c-1.8-1.18-3.38-2.61-4.85-4.18c-2.13-2.28-4.05-4.72-6.05-7.11c-0.75-0.9-1.52-1.77-2.32-2.63
		c-1.5-1.63-3-3.26-4.55-4.84c-1.64-1.67-3.34-3.27-5.02-4.9c-0.14-0.14-0.29-0.27-0.43-0.42c-0.04-0.05-0.08-0.13-0.08-0.19
		c0-0.1,0.11-0.09,0.17-0.09c0.5-0.01,0.99-0.04,1.49-0.08c0.92-0.07,1.82-0.26,2.73-0.37c0.13-0.12,0.33,0,0.46-0.14
		c0.08-0.11,0.24-0.03,0.33-0.12c-0.12,0.08-0.23,0.05-0.34-0.02c-1.72-0.22-3.23-0.94-4.53-2.07c-0.87-0.75-1.63-1.59-2.21-2.59
		c-0.05-0.08-0.08-0.18-0.11-0.27c-0.01-0.02,0.02-0.04,0.05-0.1c0.22,0.08,0.44,0.17,0.66,0.25c0.16,0.05,0.35,0.06,0.47,0.2
		c0.06,0.04,0.12,0.07,0.18,0.11c0,0,0.01,0.04,0.01,0.04s0.01-0.05,0-0.05c-0.06-0.04-0.12-0.08-0.18-0.12
		c-0.14-0.09-0.25-0.21-0.31-0.37c-0.03-0.04-0.06-0.08-0.09-0.12c-2.15-2.03-3.94-4.35-5.48-6.87c-1.47-2.41-2.74-4.91-3.81-7.52
		c-0.52-1.27-0.91-2.58-1.04-3.95c-0.07-0.7,0.04-1.39,0.32-2.04c0.3-0.71,0.84-1.16,1.54-1.44c0.46-0.19,0.95-0.3,1.45-0.33
		c1.1-0.07,2.19,0.01,3.27,0.2c1.37,0.24,2.72,0.62,4.05,1.03c0.96,0.3,1.82,0.8,2.63,1.39c1.48,1.08,2.74,2.39,3.88,3.81
		c0.53,0.66,1.01,1.36,1.52,2.03c0.07,0.1,0.12,0.22,0.25,0.25c0.11-0.04,0.14-0.14,0.16-0.24c0.16-0.73,0.31-1.46,0.47-2.19
		c0.07-0.32,0.17-0.36,0.46-0.18c0.91,0.56,1.8,1.16,2.63,1.85c2.61,2.16,4.85,4.64,6.78,7.42c1.75,2.52,3.31,5.15,4.61,7.93
		c0.03,0.07,0.05,0.14,0.1,0.2c0.02,0.03,0.08,0.03,0.13,0.04c0.01,0,0.04-0.02,0.05-0.04c0.06-0.19,0.12-0.38,0.16-0.57
		c0.18-0.82,0.36-1.65,0.54-2.47c0.23-0.01,0.24,0.17,0.28,0.3c0.83,2.35,1.82,4.63,2.78,6.93c0.31,0.73,0.62,1.47,0.93,2.2
		c0.04,0.09,0.07,0.19,0.2,0.19c0.13-0.12,0.07-0.27,0.06-0.4c-0.09-0.87-0.2-1.73-0.39-2.58c-0.31-1.46-0.64-2.91-1.04-4.35
		c-0.03-0.09-0.03-0.2-0.04-0.3c-0.05-0.16,0.02-0.2,0.16-0.16c0.59,0.68,1.17,1.35,1.76,2.03c2.63,3.04,5.41,5.93,8.31,8.7
		c1,0.95,1.98,1.9,2.81,2.99c1.1,1.45,1.92,3.02,2.26,4.83c0.21,1.12,0.2,2.23-0.11,3.33c-0.05,0.19-0.11,0.38-0.16,0.57
		c-0.01,0.02,0.01,0.05,0.02,0.07c0.58-0.48,0.61-0.53,1.79-3.3c0.16-0.01,0.19,0.12,0.24,0.23c0.87,1.92,1.43,3.92,1.78,5.99
		c0.17,1.01,0.21,2.04,0.21,3.05c0.01,1.64-0.13,3.28-0.61,4.87c-0.03,0.11-0.08,0.23-0.12,0.32c-0.18,0.03-0.26-0.08-0.34-0.16
		c-1.34-1.3-2.69-2.6-4.01-3.91c-3.22-3.19-6.41-6.42-9.66-9.58c-2.95-2.87-5.83-5.8-8.78-8.66c-4.92-4.77-9.72-9.66-14.62-14.45
		c-1.6-1.57-3.19-3.15-4.8-4.71c-0.05-0.05-0.12-0.09-0.18-0.14c-0.76-0.31-1.12-1.05-1.69-1.57c-0.23-0.23-0.48-0.44-0.67-0.71
		c-0.09-0.16-0.2-0.31-0.34-0.43c0,0-0.03-0.05-0.03-0.05s0.02,0.06,0.02,0.06c0.16,0.11,0.25,0.28,0.34,0.43
		c0.22,0.29,0.49,0.53,0.75,0.78c0.42,0.61,1.11,0.98,1.41,1.69c0.78,1,1.67,1.91,2.53,2.84c2.17,2.34,4.34,4.67,6.52,7
		c1.45,1.55,2.9,3.09,4.35,4.63c1.23,1.31,2.45,2.62,3.69,3.92c0.91,0.96,1.85,1.89,2.76,2.84c1.45,1.51,2.88,3.04,4.34,4.54
		c2.07,2.12,4.15,4.23,6.23,6.34c1.42,1.44,2.82,2.89,4.25,4.31c1.24,1.23,2.5,2.43,3.77,3.63c0.74,0.7,1.54,1.34,2.27,2.05
		c1.87,1.8,3.51,3.81,4.92,6c0.73,1.13,1.37,2.31,1.82,3.59c0.06,0.15,0.14,0.32-0.15,0.3c-0.69-1.24-1.41-2.47-2.27-3.6
		c-1.08-1.41-2.24-2.74-3.69-3.78c-0.53-0.38-1.08-0.72-1.65-1.01c-0.29-0.15-0.33-0.15-0.47,0.12c-0.26,0.49-0.67,0.77-1.17,0.98
		c-3.23,1.33-6.54,2.39-9.98,3.03c-1.2,0.22-2.41,0.36-3.61,0.55c-1.43,0.22-2.87,0.31-4.31,0.38c-1.62,0.08-3.24,0.09-4.85-0.05
		c-0.84-0.07-1.69-0.1-2.53-0.19c-0.87-0.09-1.73-0.18-2.59-0.33c-1.22-0.22-2.45-0.41-3.66-0.68c-1.99-0.45-3.95-1.01-5.87-1.71
		c-2.11-0.77-4.17-1.64-6.16-2.67c-3.42-1.77-6.63-3.85-9.58-6.33c-3.58-3.02-6.7-6.45-9.36-10.31c-1.53-2.22-2.84-4.56-4.01-6.99
		c-1.45-3.01-2.56-6.15-3.39-9.39c-0.53-2.07-0.93-4.17-1.18-6.3C2.66,67.39,2.55,66.36,2.49,65.31z"/>
	<path class="st2" d="M51.55,40.68c0-0.35,0-0.63,0-0.9c0-4.49,0-8.97,0-13.46c0-0.93-0.11-0.82,0.84-0.83c1.02,0,2.04,0,3.07,0
		c0.26,0,0.31,0.05,0.31,0.3c0.01,0.2,0,0.4,0,0.6c0,7.72,0,15.45,0,23.17c0,1,0.1,0.89-0.86,0.89c-1.2,0-2.39-0.01-3.59,0.01
		c-0.33,0.01-0.49-0.11-0.61-0.41c-0.7-1.7-1.42-3.4-2.14-5.09c-1.63-3.88-3.27-7.75-4.9-11.63c-0.07-0.18-0.15-0.35-0.22-0.52
		c-0.19,0.03-0.15,0.16-0.15,0.24c-0.01,0.22-0.01,0.45-0.01,0.67c0,5.21,0,10.42,0,15.62c0,0.12,0,0.25,0,0.37
		c0,0.77,0.04,0.73-0.73,0.73c-1.05,0-2.09,0-3.14,0c-0.34,0-0.38-0.05-0.4-0.39c-0.01-0.17,0-0.35,0-0.52c0-7.72,0-15.45,0-23.17
		c0-0.97-0.12-0.88,0.87-0.88c1.52,0,3.04,0,4.56,0c0.76,0,0.64-0.06,0.92,0.6c0.97,2.32,1.92,4.64,2.88,6.97
		c0.96,2.32,1.92,4.65,2.88,6.97C51.23,40.23,51.26,40.46,51.55,40.68z"/>
	<path class="st2" d="M62.47,40.24c0-3.14,0-6.28,0-9.42c0-0.68,0.02-0.66-0.65-0.66c-1.2,0-2.39,0-3.59,0c-0.17,0-0.35,0-0.52-0.01
		c-0.11-0.01-0.19-0.06-0.2-0.18c-0.01-0.1-0.02-0.2-0.02-0.3c0-1.22,0-2.44,0-3.66c0-0.51,0.01-0.51,0.55-0.52
		c0.07,0,0.15,0,0.22,0c4.66,0,9.32,0,13.98,0c0.89,0,0.81-0.07,0.81,0.79c0,1.05,0,2.09,0,3.14c0,0.17,0,0.35-0.01,0.52
		c-0.01,0.11-0.07,0.19-0.18,0.2c-0.17,0.01-0.35,0.02-0.52,0.02c-1.2,0-2.39,0-3.59,0c-0.17,0-0.35,0-0.52,0
		c-0.18,0-0.28,0.08-0.29,0.26c-0.01,0.22-0.01,0.45-0.01,0.67c0,6.03,0,12.06,0,18.09c0,0.3,0.01,0.6,0,0.9
		c-0.01,0.32-0.07,0.38-0.41,0.38c-1.27,0-2.54,0-3.81,0c-0.32,0-0.65,0-0.97,0c-0.18,0-0.27-0.11-0.27-0.28c-0.01-0.2,0-0.4,0-0.6
		C62.47,46.47,62.47,43.35,62.47,40.24z"/>
	<path class="st4" d="M64.57,13.26c0.21-0.04,0.46,0.07,0.61-0.16c0.46,0,0.87,0.18,1.3,0.3c1.08,0.3,2.15,0.62,3.18,1.05
		c0.03,0.16-0.02,0.24-0.2,0.18c-0.5-0.03-0.94-0.28-1.42-0.41c-1.1-0.29-2.18-0.64-3.29-0.85C64.69,13.36,64.63,13.3,64.57,13.26z"
		/>
	<path class="st4" d="M69.47,14.64c0.07-0.06,0.13-0.12,0.2-0.18c0.56,0.11,1.07,0.36,1.6,0.57c0.86,0.36,1.72,0.73,2.58,1.1
		c0.02,0.13,0,0.21-0.16,0.14c-0.76-0.29-1.52-0.59-2.28-0.88C70.75,15.14,70.11,14.89,69.47,14.64z"/>
	<path class="st4" d="M73.68,16.27c0.05-0.05,0.11-0.09,0.16-0.14c0.73,0.28,1.41,0.66,2.11,1.02c0.07,0.06,0.07,0.12,0,0.18
		C75.18,16.99,74.4,16.69,73.68,16.27z"/>
	<path class="st4" d="M78.94,18.94c-0.51-0.27-1.07-0.47-1.5-0.9c-0.05-0.03-0.07-0.05-0.06-0.08c0.02-0.03,0.03-0.05,0.05-0.05
		c0.61,0.25,1.18,0.58,1.67,1.02C79.06,19,79,19,78.94,18.94z"/>
	<path class="st4" d="M77.44,17.91c0,0.04,0.01,0.09,0.01,0.13c-0.55-0.13-1.03-0.41-1.5-0.71c0-0.06,0-0.12,0-0.18
		C76.44,17.4,76.94,17.66,77.44,17.91z"/>
	<path class="st5" d="M83.14,116.73c0.12-0.07,0.12-0.19,0.15-0.3c0.23,0.38,0.38,0.78,0.46,1.21c-0.06,0.06-0.11,0.06-0.17,0
		C83.43,117.34,83.29,117.04,83.14,116.73z"/>
	<path class="st4" d="M79.83,19.25c0.32,0.22,0.71,0.35,0.9,0.73l0,0c-0.37-0.09-0.67-0.28-0.9-0.59c-0.05-0.03-0.07-0.06-0.05-0.1
		C79.8,19.27,79.81,19.25,79.83,19.25z"/>
	<path class="st4" d="M79.83,19.25c0,0.05,0,0.1,0,0.15c-0.34-0.08-0.64-0.21-0.9-0.46c0.06,0,0.11,0,0.17-0.01
		C79.39,18.96,79.6,19.13,79.83,19.25z"/>
	<path class="st6" d="M58.62,105.7c0.1,0.09,0.19,0.17,0.29,0.26c-0.25,0.04-0.45-0.04-0.65-0.2
		C58.38,105.64,58.5,105.68,58.62,105.7z"/>
	<path class="st7" d="M83.57,117.64c0.06,0,0.11,0,0.17,0c0.11,0.08,0.13,0.2,0.13,0.32c0,0.04-0.03,0.09-0.04,0.13
		c-0.03-0.02-0.08-0.03-0.09-0.05C83.68,117.91,83.63,117.78,83.57,117.64z"/>
	<path class="st4" d="M81.18,20.29c-0.22,0-0.37-0.1-0.45-0.3c0,0,0,0,0,0C80.95,19.98,81.1,20.09,81.18,20.29L81.18,20.29z"/>
	<path class="st4" d="M81.18,20.29c0.22,0,0.36,0.1,0.45,0.3l0,0C81.42,20.58,81.27,20.49,81.18,20.29
		C81.18,20.29,81.18,20.29,81.18,20.29z"/>
	<path class="st8" d="M60.25,72.47c-0.05,0.05-0.11,0.11-0.16,0.16c-0.04-0.06-0.1-0.11-0.11-0.18c-0.01-0.06,0.02-0.14,0.03-0.2
		c0.06,0.03,0.13,0.05,0.18,0.1C60.22,72.37,60.23,72.43,60.25,72.47z"/>
	<path class="st4" d="M81.63,20.58c0.02,0.01,0.06,0.03,0.06,0.03C81.68,20.67,81.66,20.66,81.63,20.58
		C81.63,20.59,81.63,20.58,81.63,20.58z"/>
	<path class="st4" d="M108.4,121.82c-0.52,0-1.05,0.01-1.57,0c-0.27-0.01-0.35-0.09-0.36-0.36c-0.01-0.2-0.01-0.4-0.01-0.6
		c0-37.34,0-74.67,0-112.01c0-0.22,0-0.45,0.01-0.67c0.52,0,1.05-0.01,1.57,0c0.28,0.01,0.35,0.08,0.37,0.36
		c0.01,0.22,0.01,0.45,0.01,0.67c0,37.26,0,74.53,0,111.79C108.41,121.27,108.4,121.55,108.4,121.82z"/>
	<path class="st2" d="M175.58,34.94c-0.03-1.52-0.67-2.68-2-3.43c-0.11-0.06-0.22-0.12-0.38-0.21c0.26-0.17,0.45-0.28,0.63-0.41
		c0.65-0.47,1.08-1.11,1.23-1.9c0.07-0.34,0.07-0.7,0.06-1.04c-0.09-1.82-0.95-3.1-2.66-3.79c-0.82-0.33-1.68-0.45-2.56-0.45
		c-2.34,0-4.69,0-7.03,0c-0.67,0-0.64-0.04-0.64,0.66c0,4.81,0,9.62,0,14.43c0,0.15,0,0.3,0.01,0.45c0.01,0.12,0.08,0.18,0.19,0.18
		c0.2,0.01,0.4,0.01,0.6,0.01c2.22,0,4.44,0,6.65,0c0.3,0,0.6,0.01,0.9-0.02c1-0.08,1.98-0.25,2.87-0.73
		c1.03-0.54,1.69-1.37,1.97-2.5C175.55,35.78,175.59,35.36,175.58,34.94z M165.15,26.76c0-0.3,0.06-0.36,0.35-0.36
		c1.49,0,2.99,0,4.48,0.01c0.46,0,0.88,0.14,1.28,0.37c0.35,0.21,0.61,0.5,0.78,0.88c0.38,0.87,0.05,1.73-0.81,2.11
		c-0.39,0.17-0.81,0.25-1.24,0.25c-0.07,0-0.15,0.01-0.22,0.01c-0.65,0-1.29,0-1.94,0c-0.77,0-1.54,0-2.32,0
		c-0.3,0-0.35-0.05-0.35-0.35C165.14,28.7,165.14,27.73,165.15,26.76z M171.9,36.13c-0.34,0.23-0.71,0.37-1.1,0.44
		c-0.37,0.06-0.74,0.11-1.11,0.11c-1.32,0.01-2.64,0.01-3.96,0c-0.12,0-0.25,0-0.37-0.02c-0.11-0.01-0.18-0.08-0.2-0.19
		c-0.01-0.07-0.02-0.15-0.02-0.22c0-1.07,0-2.14,0-3.21c0-0.34,0.06-0.4,0.39-0.4c0.72-0.01,1.44,0,2.17,0c0.62,0,1.25,0,1.87,0
		c0.6,0,1.19,0.1,1.74,0.37c0.38,0.19,0.73,0.42,0.99,0.77C172.89,34.58,172.73,35.58,171.9,36.13z"/>
	<path class="st2" d="M153.68,58.51c-0.1-0.14-0.21-0.28-0.32-0.41c-1.3-1.48-2.61-2.95-3.91-4.42c-0.11-0.13-0.23-0.26-0.33-0.4
		c-0.05-0.07-0.01-0.15,0.06-0.18c0.19-0.07,0.38-0.12,0.57-0.18c1.59-0.53,2.6-1.61,3.01-3.24c0.09-0.34,0.14-0.68,0.17-1.03
		c0.17-2.47-1.16-4.59-3.53-5.35c-0.7-0.22-1.41-0.31-2.13-0.31c-1.54,0-3.09,0-4.63,0c-0.7,0-1.4,0-2.09,0
		c-0.83,0-0.74-0.07-0.74,0.78c0,0.12,0,0.25,0,0.37c0,2.24,0,4.48,0,6.73c0,2.34,0,4.68,0,7.02c0,0.2,0,0.4,0.01,0.6
		c0,0.15,0.08,0.23,0.23,0.23c0.57,0,1.15,0.01,1.72,0.01c1.16-0.01,0.99,0.17,1-0.97c0.01-1.32,0-2.64,0.01-3.96
		c0-0.27,0.05-0.32,0.29-0.32c0.8-0.01,1.59,0,2.39-0.01c0.25,0,0.41,0.11,0.57,0.29c0.53,0.63,1.08,1.24,1.61,1.86
		c0.82,0.94,1.64,1.88,2.44,2.83c0.18,0.21,0.37,0.29,0.64,0.29c0.9-0.01,1.79,0,2.69-0.01c0.07,0,0.16,0,0.22-0.03
		C153.69,58.67,153.73,58.58,153.68,58.51z M147.14,50.79c-0.62,0-1.25,0-1.87,0c0,0,0,0,0,0c-0.75,0-1.49,0-2.24,0
		c-0.18,0-0.27-0.1-0.27-0.27c0-0.05,0-0.1,0-0.15c0-1.39,0-2.79,0-4.18c0-0.4,0.04-0.44,0.41-0.45c1.39,0,2.79,0,4.18,0
		c0.33,0,0.65,0.07,0.95,0.16c1.03,0.32,1.68,1.27,1.67,2.4c-0.01,1.13-0.68,2.04-1.73,2.35C147.88,50.75,147.52,50.79,147.14,50.79
		z"/>
	<path class="st2" d="M190.9,66.46c-0.92-2.1-2.55-3.39-4.76-3.96c-0.75-0.19-1.52-0.27-2.3-0.27c-1.84,0-3.69,0-5.53,0
		c-0.15,0-0.3,0-0.45,0.01c-0.15,0.01-0.23,0.1-0.24,0.23c-0.01,0.2-0.01,0.4-0.01,0.6c0,2.34,0,4.68,0,7.03c0,2.37,0,4.73,0,7.1
		c0,0.2,0,0.4,0.02,0.6c0.01,0.11,0.08,0.18,0.19,0.19c0.2,0.01,0.4,0.01,0.6,0.01c1.67,0,3.34-0.01,5.01,0
		c0.65,0,1.3-0.03,1.94-0.14c2.62-0.44,4.57-1.8,5.61-4.28C191.97,71.2,191.93,68.8,190.9,66.46z M188.3,72.31
		c-0.64,1.56-1.82,2.44-3.47,2.72c-0.54,0.09-1.09,0.1-1.64,0.09c-0.77-0.01-1.54,0-2.32-0.01c-0.24,0-0.31-0.08-0.33-0.31
		c-0.01-0.12,0-0.25,0-0.37c0-2.91,0-5.83,0-8.74c0-0.71,0.01-0.67,0.64-0.67c0.47,0,0.95,0,1.52,0c0.59,0.03,1.29-0.04,1.99,0.07
		c2.02,0.31,3.27,1.47,3.82,3.41C188.87,69.79,188.81,71.07,188.3,72.31z"/>
	<path class="st2" d="M158.44,29.11c-0.74-2.62-2.37-4.46-5-5.32c-1.52-0.5-3.09-0.55-4.65-0.19c-2.51,0.58-4.38,2.02-5.42,4.39
		c-1.07,2.42-1.06,4.9-0.04,7.33c0.89,2.13,2.5,3.49,4.72,4.13c0.87,0.25,1.76,0.32,2.66,0.36c0.72-0.03,1.44-0.07,2.15-0.23
		c2.33-0.55,4.04-1.88,5.06-4.05C158.88,33.46,159.06,31.3,158.44,29.11z M155.48,33.85c-0.69,1.96-2.25,3.11-4.33,3.21
		c-0.12,0.01-0.25,0-0.37,0c-0.6,0.02-1.19-0.02-1.77-0.2c-1.23-0.37-2.18-1.1-2.75-2.25c-0.93-1.86-1.04-3.78-0.16-5.69
		c0.81-1.76,2.26-2.65,4.17-2.81c0.5-0.04,1-0.03,1.49,0.06c2.07,0.42,3.32,1.72,3.87,3.7C156,31.21,155.94,32.54,155.48,33.85z"/>
	<path class="st2" d="M140.63,77.26c-2.09-4.68-4.19-9.36-6.29-14.04c-0.11-0.25-0.23-0.5-0.33-0.75c-0.06-0.15-0.17-0.24-0.34-0.24
		c-0.92,0-1.84,0-2.77,0c-0.16,0-0.28,0.07-0.35,0.22c-0.08,0.18-0.17,0.36-0.25,0.54c-1.16,2.59-2.32,5.18-3.48,7.77
		c-0.98,2.18-1.96,4.36-2.92,6.55c-0.09,0.19-0.27,0.37-0.18,0.64c0.07,0.01,0.13,0.04,0.2,0.04c0.82,0,1.65-0.01,2.47,0.01
		c0.33,0.01,0.49-0.13,0.61-0.42c0.31-0.73,0.67-1.45,0.98-2.18c0.13-0.3,0.3-0.44,0.62-0.39c0.07,0.01,0.15,0,0.22,0
		c2.29,0,4.59,0,6.88,0c0.12,0,0.25,0.01,0.37,0c0.24-0.02,0.37,0.1,0.45,0.31c0.04,0.12,0.1,0.23,0.15,0.34
		c0.29,0.66,0.6,1.31,0.88,1.98c0.12,0.28,0.29,0.36,0.57,0.36c0.8-0.01,1.6,0,2.39-0.01c0.11,0,0.25,0.05,0.33-0.1
		C140.87,77.64,140.72,77.46,140.63,77.26z M129.47,72.16c0.11-0.5,2.34-5.69,2.78-6.48c0.31,0.47,2.6,5.7,2.84,6.49
		C134.2,72.27,130.02,72.25,129.47,72.16z"/>
	<path class="st2" d="M174.62,77.14c-1.67-3.72-3.34-7.44-5.01-11.17c-0.5-1.11-1.01-2.22-1.49-3.34c-0.12-0.29-0.28-0.43-0.61-0.42
		c-0.8,0.02-1.59,0.02-2.39,0c-0.32-0.01-0.49,0.11-0.62,0.4c-0.57,1.3-1.15,2.59-1.73,3.88c-1.61,3.59-3.22,7.17-4.82,10.76
		c-0.1,0.21-0.29,0.42-0.18,0.72c0.94,0,1.89,0,2.83,0c0.17,0,0.28-0.08,0.34-0.23c0.18-0.41,0.37-0.81,0.56-1.22
		c0.2-0.43,0.4-0.86,0.58-1.29c0.07-0.16,0.17-0.23,0.34-0.24c0.12,0,0.25,0,0.37,0c2.34,0,4.68,0,7.02,0c0.2,0,0.4-0.03,0.61,0.06
		c0.08,0.17,0.16,0.34,0.24,0.53c0.31,0.68,0.61,1.36,0.91,2.04c0.1,0.23,0.22,0.36,0.5,0.35c0.92-0.01,1.84-0.01,2.88-0.01
		C174.83,77.64,174.73,77.38,174.62,77.14z M168.85,72.23c-0.05,0-0.1,0-0.15,0c-1.62,0-3.23,0-4.85,0c-0.12,0-0.25,0.02-0.39-0.12
		c0.87-2.08,1.81-4.16,2.71-6.25c0.02-0.06,0.11-0.09,0.19-0.16c0.06,0.13,0.12,0.23,0.17,0.34c0.81,1.87,1.63,3.73,2.44,5.6
		c0.04,0.09,0.08,0.18,0.12,0.27C169.17,72.13,169.11,72.22,168.85,72.23z"/>
	<path class="st2" d="M172.08,58.03c-1.82-4.07-3.64-8.13-5.47-12.19c-0.39-0.86-0.78-1.72-1.16-2.59c-0.08-0.18-0.2-0.26-0.4-0.26
		c-0.87,0-1.74,0.01-2.62,0c-0.26,0-0.44,0.07-0.51,0.33c-0.02,0.07-0.07,0.13-0.1,0.2c-2.19,4.88-4.38,9.76-6.56,14.65
		c-0.07,0.15-0.19,0.3-0.14,0.49c0.13,0.11,0.28,0.07,0.42,0.07c0.67,0,1.35,0.01,2.02,0c0.8,0,0.64,0.08,0.97-0.65
		c0.35-0.77,0.7-1.54,1.06-2.3c0.15-0.01,0.28-0.03,0.4-0.03c2.44,0,4.88,0,7.33,0c0.07,0,0.15,0,0.22,0
		c0.2-0.01,0.32,0.09,0.39,0.28c0.05,0.14,0.12,0.27,0.18,0.41c0.28,0.64,0.59,1.27,0.85,1.91c0.12,0.31,0.31,0.4,0.62,0.39
		c0.65-0.02,1.3,0,1.94-0.01c0.24,0,0.48-0.01,0.71-0.02C172.34,58.41,172.17,58.23,172.08,58.03z M166.51,52.96
		c-0.62,0.06-4.9,0.07-5.61,0c0.15-0.6,2.21-5.41,2.77-6.48c0.14,0.03,0.18,0.14,0.23,0.25c0.85,1.96,1.71,3.92,2.56,5.88
		C166.51,52.72,166.58,52.83,166.51,52.96z"/>
	<path class="st2" d="M133.08,98.53c-0.34-0.39-0.7-0.78-1.04-1.17c-0.36-0.41-0.73-0.8-1.12-1.29c0.34-0.12,0.58-0.19,0.8-0.29
		c1.03-0.47,1.63-1.27,1.82-2.38c0.06-0.39,0.08-0.79,0.04-1.19c-0.15-1.33-0.84-2.26-2.05-2.82c-0.55-0.25-1.14-0.35-1.74-0.34
		c-1.57,0-3.14,0-4.71,0c-0.1,0-0.2,0-0.3,0.01c-0.14,0.01-0.23,0.08-0.23,0.23c-0.01,0.2-0.01,0.4-0.01,0.6c0,2.81,0,5.63,0,8.44
		c0,0.49-0.07,0.99,0.05,1.48c0.53,0.18,1.08,0.06,1.61,0.08c0.32,0.01,0.34-0.02,0.35-0.33c0.01-0.35,0-0.7,0-1.05
		c0-0.62,0-1.24,0-1.87c0-0.31,0.05-0.36,0.34-0.36c0.47-0.01,0.95,0.01,1.42-0.01c0.26-0.01,0.42,0.1,0.57,0.28
		c0.42,0.49,0.85,0.98,1.27,1.47c0.47,0.55,0.95,1.09,1.42,1.64c0.14,0.16,0.29,0.24,0.51,0.24c0.62-0.01,1.24-0.01,1.87-0.02
		c0.04,0,0.07-0.04,0.17-0.1C133.81,99.32,133.43,98.94,133.08,98.53z M129.48,94.42c-0.4,0.02-0.79,0-1.19,0c0,0,0,0,0,0
		c-0.45,0-0.89,0.01-1.34,0c-0.3,0-0.38-0.06-0.38-0.33c-0.01-0.94-0.01-1.89,0-2.83c0-0.25,0.07-0.33,0.3-0.33
		c0.99-0.01,1.99-0.03,2.98,0.01c1.03,0.04,1.53,0.63,1.69,1.39c0.19,0.9-0.35,1.77-1.25,1.99
		C130.02,94.39,129.75,94.41,129.48,94.42z"/>
	<path class="st2" d="M156.7,92.76c-0.58-1.93-1.8-3.24-3.78-3.76c-0.95-0.25-1.93-0.27-2.89-0.04c-1.93,0.48-3.27,1.65-3.92,3.54
		c-0.48,1.41-0.46,2.85,0.05,4.25c0.58,1.6,1.7,2.66,3.35,3.15c1.18,0.34,2.36,0.36,3.54,0.04c1.59-0.43,2.71-1.42,3.37-2.93
		c0.34-0.79,0.5-1.61,0.49-2.42C156.92,93.93,156.87,93.33,156.7,92.76z M154.62,96.1c-0.5,1.28-1.43,2-2.81,2.12
		c-0.15,0.01-0.3,0.02-0.54,0.04c-0.25-0.03-0.61-0.05-0.94-0.13c-0.98-0.24-1.69-0.83-2.11-1.75c-0.51-1.14-0.59-2.32-0.14-3.49
		c0.5-1.3,1.47-2.04,2.86-2.19c2.3-0.24,3.79,1.27,3.96,3.49C154.96,94.85,154.85,95.49,154.62,96.1z"/>
	<path class="st2" d="M182.44,92.48c-0.34-1.66-1.28-2.83-2.89-3.42c-0.59-0.22-1.2-0.3-1.83-0.29c-2.29,0.05-4.07,1.61-4.43,3.88
		c-0.09,0.6-0.07,1.19-0.08,1.79c0.01,0.67-0.03,1.34,0.11,2.01c0.34,1.64,1.26,2.79,2.82,3.4c0.61,0.24,1.25,0.32,1.9,0.31
		c1.86-0.03,4.03-1.24,4.43-3.88c0.13-0.82,0.06-1.64,0.09-2.46C182.58,93.37,182.53,92.92,182.44,92.48z M180.31,96.54
		c-0.38,1.05-1.35,1.72-2.47,1.7c-1.08-0.01-2.02-0.68-2.39-1.71c-0.09-0.25-0.17-0.53-0.18-0.8c-0.02-0.84-0.05-1.69,0-2.53
		c0.07-0.97,0.51-1.76,1.42-2.22c1.32-0.67,2.9-0.13,3.52,1.22c0.17,0.36,0.27,0.75,0.28,1.15c0,0.37,0,0.75,0,1.12c0,0,0,0,0,0
		c0,0.35,0,0.7,0,1.04C180.51,95.87,180.43,96.21,180.31,96.54z"/>
	<path class="st2" d="M205.63,94.52c0-0.47,0.03-0.95-0.01-1.42c-0.16-2.13-1.43-3.54-3.09-4.09c-0.6-0.2-1.21-0.27-1.84-0.24
		c-2.17,0.11-4.15,1.62-4.34,4.21c-0.07,0.99-0.06,1.99,0,2.98c0.1,1.55,0.99,3.27,3.13,3.97c0.58,0.19,1.17,0.24,1.77,0.21
		c2.07-0.08,3.75-1.47,4.24-3.48C205.67,95.96,205.63,95.24,205.63,94.52z M203.52,96.09c-0.44,2.21-2.74,2.62-4.03,1.69
		c-0.57-0.41-0.9-0.98-1.06-1.66c-0.13-0.56-0.1-1.14-0.11-1.71c-0.01-0.57-0.01-1.14,0.13-1.7c0.42-1.69,2.24-2.51,3.76-1.69
		c0.73,0.39,1.17,1.01,1.31,1.81C203.72,93.91,203.74,95.01,203.52,96.09z"/>
	<path class="st2" d="M91.28,49.63c-1.43-5-2.85-10-4.28-15c-0.83-2.89-1.66-5.79-2.48-8.68c-0.11-0.38-0.09-0.46-0.61-0.46
		c-1.5,0-2.99,0-4.49,0c-0.57,0-0.57,0.01-0.75,0.58c-0.01,0.05-0.02,0.1-0.04,0.14c-2.08,6.93-4.17,13.86-6.25,20.8
		c-0.31,1.02-0.62,2.05-0.91,3.08c-0.08,0.28-0.01,0.36,0.28,0.36c1.42,0,2.84,0,4.26,0c0.36,0,0.4-0.03,0.5-0.41
		c0.17-0.7,0.33-1.4,0.5-2.11c0.21-0.87,0.42-1.74,0.62-2.6c0.11-0.03,0.18-0.06,0.25-0.06c2.14,0,4.29-0.01,6.43,0
		c0.31,0,0.36,0.04,0.44,0.38c0.21,0.87,0.42,1.74,0.62,2.61c0.15,0.63,0.31,1.26,0.45,1.89c0.05,0.2,0.16,0.3,0.36,0.3
		c0.12,0,0.25,0,0.37,0c1.45,0,2.89,0,4.34,0c0.17,0,0.35-0.01,0.6-0.03C91.41,50.11,91.35,49.87,91.28,49.63z M83.4,41
		c-0.12,0.02-0.25,0.01-0.37,0.01c-1.25,0-2.49,0-3.74,0c-0.12,0-0.25,0-0.37-0.02c-0.11-0.02-0.18-0.09-0.16-0.21
		c0.03-0.17,0.06-0.34,0.1-0.51c0.68-2.86,1.35-5.72,2.03-8.57c0.05-0.21,0.12-0.41,0.23-0.76c0.18,0.7,0.33,1.25,0.46,1.81
		c0.64,2.59,1.27,5.17,1.91,7.76c0.02,0.1,0.05,0.19,0.07,0.29C83.57,40.91,83.51,40.98,83.4,41z"/>
</g>
</svg>
